<mxfile host="app.diagrams.net" agent="Mozilla/5.0 (Windows NT 10.0; Win64; x64) AppleWebKit/537.36 (KHTML, like Gecko) Chrome/130.0.0.0 Safari/537.36" version="24.8.1">
  <diagram name="Page-1" id="a7904f86-f2b4-8e86-fa97-74104820619b">
    <mxGraphModel grid="1" page="1" gridSize="10" guides="1" tooltips="1" connect="1" arrows="1" fold="1" pageScale="1" pageWidth="1100" pageHeight="850" background="none" math="0" shadow="0">
      <root>
        <mxCell id="0" />
        <mxCell id="1" parent="0" />
        <mxCell id="GVxuWiYh2Y_qJy_Hf5tY-45" style="edgeStyle=orthogonalEdgeStyle;rounded=0;orthogonalLoop=1;jettySize=auto;html=1;exitX=0.5;exitY=0;exitDx=0;exitDy=0;entryX=0.25;entryY=1;entryDx=0;entryDy=0;" edge="1" parent="1" source="24794b860abc3c2d-1" target="GVxuWiYh2Y_qJy_Hf5tY-44">
          <mxGeometry relative="1" as="geometry" />
        </mxCell>
        <mxCell id="GVxuWiYh2Y_qJy_Hf5tY-46" value="----" style="edgeStyle=orthogonalEdgeStyle;rounded=0;orthogonalLoop=1;jettySize=auto;html=1;exitX=0;exitY=0.5;exitDx=0;exitDy=0;" edge="1" parent="1" source="24794b860abc3c2d-1">
          <mxGeometry relative="1" as="geometry">
            <mxPoint x="-300" y="160" as="targetPoint" />
          </mxGeometry>
        </mxCell>
        <mxCell id="24794b860abc3c2d-1" value="&lt;p style=&quot;margin: 0px ; margin-top: 4px ; text-align: center ; text-decoration: underline&quot;&gt;&lt;b&gt;Adotante&amp;nbsp;&lt;/b&gt;&lt;/p&gt;&lt;hr&gt;&lt;p style=&quot;margin: 0px ; margin-left: 8px&quot;&gt;ID (PK)&lt;br&gt;Endereço&lt;br&gt;Telefone&amp;nbsp;&lt;br&gt;Documento&lt;br&gt;Tipo_de_Documento&lt;br&gt;ID_Endereço_Adotante&lt;br&gt;Descrião&lt;br&gt;Residencia&lt;/p&gt;" style="verticalAlign=top;align=left;overflow=fill;fontSize=12;fontFamily=Helvetica;html=1;rounded=0;shadow=0;comic=0;labelBackgroundColor=none;strokeWidth=1" vertex="1" parent="1">
          <mxGeometry x="-120" y="180" width="140" height="180" as="geometry" />
        </mxCell>
        <mxCell id="24794b860abc3c2d-39" style="edgeStyle=orthogonalEdgeStyle;rounded=0;html=1;exitX=1;exitY=0.25;entryX=0;entryY=0.75;labelBackgroundColor=none;endArrow=none;endFill=0;endSize=8;fontFamily=Verdana;fontSize=12;align=left;" edge="1" parent="1" source="24794b860abc3c2d-16" target="24794b860abc3c2d-17">
          <mxGeometry relative="1" as="geometry">
            <Array as="points">
              <mxPoint x="160" y="350" />
              <mxPoint x="210" y="350" />
              <mxPoint x="210" y="310" />
              <mxPoint x="220" y="310" />
            </Array>
          </mxGeometry>
        </mxCell>
        <mxCell id="24794b860abc3c2d-16" value="&lt;p style=&quot;margin: 0px ; margin-top: 4px ; text-align: center ; text-decoration: underline&quot;&gt;&lt;b&gt;Gato&lt;/b&gt;&lt;/p&gt;&lt;hr&gt;&lt;p style=&quot;margin: 0px ; margin-left: 8px&quot;&gt;ID_Gato (PK)&lt;br&gt;ID_Ong (FK)&lt;br&gt;ID_Colaborador_Resgate&lt;br&gt;Local_Resgate&lt;br&gt;Raça&amp;nbsp;&lt;br&gt;Cor&lt;br&gt;Saúde&lt;br&gt;Idade&lt;br&gt;Descrição&lt;br&gt;&lt;br&gt;&lt;/p&gt;" style="verticalAlign=top;align=left;overflow=fill;fontSize=12;fontFamily=Helvetica;html=1;rounded=0;shadow=0;comic=0;labelBackgroundColor=none;strokeWidth=1" vertex="1" parent="1">
          <mxGeometry x="-130" y="425" width="150" height="165" as="geometry" />
        </mxCell>
        <mxCell id="24794b860abc3c2d-17" value="&lt;p style=&quot;margin: 0px ; margin-top: 4px ; text-align: center ; text-decoration: underline&quot;&gt;&lt;b&gt;Adoção&amp;nbsp;&lt;/b&gt;&lt;/p&gt;&lt;hr&gt;&lt;p style=&quot;margin: 0px ; margin-left: 8px&quot;&gt;ID_Adoção (Pk)&lt;br&gt;ID_gato (Fk)&lt;br&gt;ID_Adotante&lt;br&gt;Data de adoção&amp;nbsp;&lt;br&gt;&lt;br&gt;&lt;/p&gt;" style="verticalAlign=top;align=left;overflow=fill;fontSize=12;fontFamily=Helvetica;html=1;rounded=0;shadow=0;comic=0;labelBackgroundColor=none;strokeWidth=1" vertex="1" parent="1">
          <mxGeometry x="220" y="205" width="140" height="105" as="geometry" />
        </mxCell>
        <mxCell id="24794b860abc3c2d-38" style="edgeStyle=orthogonalEdgeStyle;rounded=0;html=1;exitX=0;exitY=0.5;entryX=1;entryY=0.5;labelBackgroundColor=none;endArrow=none;endFill=0;endSize=8;fontFamily=Verdana;fontSize=12;align=left;" edge="1" parent="1" source="24794b860abc3c2d-18" target="24794b860abc3c2d-16">
          <mxGeometry relative="1" as="geometry" />
        </mxCell>
        <mxCell id="24794b860abc3c2d-18" value="&lt;p style=&quot;margin: 0px ; margin-top: 4px ; text-align: center ; text-decoration: underline&quot;&gt;&lt;b&gt;Resgate&lt;/b&gt;&lt;/p&gt;&lt;hr&gt;&lt;p style=&quot;margin: 0px ; margin-left: 8px&quot;&gt;ID_Resgate&lt;br&gt;ID_Gato (Fk)&lt;br&gt;ID_Voluntario (Fk)&lt;br&gt;&lt;br&gt;&lt;/p&gt;" style="verticalAlign=top;align=left;overflow=fill;fontSize=12;fontFamily=Helvetica;html=1;rounded=0;shadow=0;comic=0;labelBackgroundColor=none;strokeWidth=1" vertex="1" parent="1">
          <mxGeometry x="220" y="380" width="140" height="90" as="geometry" />
        </mxCell>
        <mxCell id="24794b860abc3c2d-19" value="&lt;p style=&quot;margin: 0px ; margin-top: 4px ; text-align: center ; text-decoration: underline&quot;&gt;&lt;b&gt;Caixa&lt;/b&gt;&lt;/p&gt;&lt;hr&gt;&lt;p style=&quot;margin: 0px ; margin-left: 8px&quot;&gt;ID_caixa (Pk)&lt;br&gt;Tipo de translação&lt;br&gt;Data translação&amp;nbsp;&lt;br&gt;Valor descrição&lt;br&gt;&lt;br&gt;&lt;/p&gt;" style="verticalAlign=top;align=left;overflow=fill;fontSize=12;fontFamily=Helvetica;html=1;rounded=0;shadow=0;comic=0;labelBackgroundColor=none;strokeWidth=1" vertex="1" parent="1">
          <mxGeometry x="120" y="40" width="140" height="115" as="geometry" />
        </mxCell>
        <mxCell id="24794b860abc3c2d-20" value="&lt;p style=&quot;margin: 0px ; margin-top: 4px ; text-align: center ; text-decoration: underline&quot;&gt;&lt;b&gt;Resgatinho ONG&lt;/b&gt;&lt;/p&gt;&lt;hr&gt;&lt;p style=&quot;margin: 0px ; margin-left: 8px&quot;&gt;ID (PK)&lt;br&gt;nome&lt;br&gt;Cnpj&lt;br&gt;Telefone&amp;nbsp;&lt;br&gt;Endereço&lt;br&gt;&lt;br&gt;&amp;nbsp;&lt;br&gt;&lt;/p&gt;" style="verticalAlign=top;align=left;overflow=fill;fontSize=12;fontFamily=Helvetica;html=1;rounded=0;shadow=0;comic=0;labelBackgroundColor=none;strokeWidth=1" vertex="1" parent="1">
          <mxGeometry x="410" y="300" width="140" height="105" as="geometry" />
        </mxCell>
        <mxCell id="24794b860abc3c2d-35" style="edgeStyle=orthogonalEdgeStyle;rounded=0;html=1;exitX=1;exitY=0.25;entryX=1;entryY=0.75;labelBackgroundColor=none;endArrow=none;endFill=0;endSize=8;fontFamily=Verdana;fontSize=12;align=left;" edge="1" parent="1" source="24794b860abc3c2d-21" target="24794b860abc3c2d-20">
          <mxGeometry relative="1" as="geometry" />
        </mxCell>
        <mxCell id="24794b860abc3c2d-48" style="edgeStyle=orthogonalEdgeStyle;rounded=0;html=1;exitX=0;exitY=0.25;entryX=1;entryY=0.75;labelBackgroundColor=none;endArrow=none;endFill=0;endSize=8;fontFamily=Verdana;fontSize=12;align=left;" edge="1" parent="1" source="24794b860abc3c2d-21" target="24794b860abc3c2d-17">
          <mxGeometry relative="1" as="geometry" />
        </mxCell>
        <mxCell id="GVxuWiYh2Y_qJy_Hf5tY-27" style="edgeStyle=orthogonalEdgeStyle;rounded=0;orthogonalLoop=1;jettySize=auto;html=1;exitX=0.5;exitY=1;exitDx=0;exitDy=0;" edge="1" parent="1" source="24794b860abc3c2d-21">
          <mxGeometry relative="1" as="geometry">
            <mxPoint x="480" y="670" as="targetPoint" />
          </mxGeometry>
        </mxCell>
        <mxCell id="24794b860abc3c2d-21" value="&lt;p style=&quot;margin: 0px ; margin-top: 4px ; text-align: center ; text-decoration: underline&quot;&gt;&lt;b&gt;Voluntario&lt;/b&gt;&lt;/p&gt;&lt;p style=&quot;margin: 0px ; margin-left: 8px&quot;&gt;ID_Voluntario (Pk)&lt;br&gt;Nome&lt;br&gt;Endereço&lt;br&gt;DtNascimento&lt;br&gt;&lt;/p&gt;" style="verticalAlign=top;align=left;overflow=fill;fontSize=12;fontFamily=Helvetica;html=1;rounded=0;shadow=0;comic=0;labelBackgroundColor=none;strokeWidth=1" vertex="1" parent="1">
          <mxGeometry x="410" y="465" width="140" height="85" as="geometry" />
        </mxCell>
        <mxCell id="GVxuWiYh2Y_qJy_Hf5tY-34" value="" style="edgeStyle=orthogonalEdgeStyle;rounded=0;orthogonalLoop=1;jettySize=auto;html=1;" edge="1" parent="1" source="24794b860abc3c2d-22" target="GVxuWiYh2Y_qJy_Hf5tY-33">
          <mxGeometry relative="1" as="geometry" />
        </mxCell>
        <mxCell id="24794b860abc3c2d-22" value="&lt;p style=&quot;margin: 0px ; margin-top: 4px ; text-align: center ; text-decoration: underline&quot;&gt;&lt;b&gt;Hospital&amp;nbsp;&lt;/b&gt;&lt;/p&gt;&lt;hr&gt;&lt;p style=&quot;margin: 0px ; margin-left: 8px&quot;&gt;Id_Hospital (PK)&lt;br&gt;Endereço&lt;br&gt;Telefone&amp;nbsp;&lt;br&gt;Cnpj&amp;nbsp;&lt;br&gt;&lt;br&gt;&lt;br&gt;&lt;/p&gt;" style="verticalAlign=top;align=left;overflow=fill;fontSize=12;fontFamily=Helvetica;html=1;rounded=0;shadow=0;comic=0;labelBackgroundColor=none;strokeWidth=1" vertex="1" parent="1">
          <mxGeometry x="590" y="450" width="140" height="100" as="geometry" />
        </mxCell>
        <mxCell id="GVxuWiYh2Y_qJy_Hf5tY-7" style="edgeStyle=orthogonalEdgeStyle;rounded=0;orthogonalLoop=1;jettySize=auto;html=1;exitX=0.25;exitY=0;exitDx=0;exitDy=0;entryX=0.5;entryY=1;entryDx=0;entryDy=0;" edge="1" parent="1" source="24794b860abc3c2d-23" target="GVxuWiYh2Y_qJy_Hf5tY-3">
          <mxGeometry relative="1" as="geometry" />
        </mxCell>
        <mxCell id="GVxuWiYh2Y_qJy_Hf5tY-8" style="edgeStyle=orthogonalEdgeStyle;rounded=0;orthogonalLoop=1;jettySize=auto;html=1;exitX=0.75;exitY=0;exitDx=0;exitDy=0;entryX=0.25;entryY=1;entryDx=0;entryDy=0;" edge="1" parent="1" source="24794b860abc3c2d-23" target="GVxuWiYh2Y_qJy_Hf5tY-4">
          <mxGeometry relative="1" as="geometry" />
        </mxCell>
        <mxCell id="24794b860abc3c2d-23" value="&lt;p style=&quot;margin: 0px ; margin-top: 4px ; text-align: center ; text-decoration: underline&quot;&gt;&lt;b&gt;Colaboradores&lt;/b&gt;&lt;/p&gt;&lt;hr&gt;&lt;p style=&quot;margin: 0px ; margin-left: 8px&quot;&gt;ID_Colaboradores (PK)&lt;br&gt;ID_End_Colaboradores&lt;br&gt;ID_Tel_Colaboradores&lt;br&gt;Cargo&lt;br&gt;Endereço(fk)&lt;br&gt;Nome (Fk)&lt;br&gt;Dtnascimento&lt;br&gt;Tipo_documento&lt;br&gt;Documento&lt;/p&gt;" style="verticalAlign=top;align=left;overflow=fill;fontSize=12;fontFamily=Helvetica;html=1;rounded=0;shadow=0;comic=0;labelBackgroundColor=none;strokeWidth=1" vertex="1" parent="1">
          <mxGeometry x="280" y="-99" width="160" height="169" as="geometry" />
        </mxCell>
        <mxCell id="VtXMs43hTw4Pi5DhxQxj-5" style="edgeStyle=orthogonalEdgeStyle;rounded=0;orthogonalLoop=1;jettySize=auto;html=1;exitX=0;exitY=0.25;exitDx=0;exitDy=0;" edge="1" parent="1" source="24794b860abc3c2d-24">
          <mxGeometry relative="1" as="geometry">
            <mxPoint x="619.7391304347827" y="357.2608695652175" as="targetPoint" />
          </mxGeometry>
        </mxCell>
        <mxCell id="VtXMs43hTw4Pi5DhxQxj-11" style="edgeStyle=orthogonalEdgeStyle;rounded=0;orthogonalLoop=1;jettySize=auto;html=1;entryX=0;entryY=0.5;entryDx=0;entryDy=0;" edge="1" parent="1" source="24794b860abc3c2d-24" target="24794b860abc3c2d-27">
          <mxGeometry relative="1" as="geometry">
            <Array as="points">
              <mxPoint x="680" y="290" />
              <mxPoint x="740" y="290" />
              <mxPoint x="740" y="225" />
            </Array>
          </mxGeometry>
        </mxCell>
        <mxCell id="24794b860abc3c2d-24" value="&lt;p style=&quot;margin: 0px ; margin-top: 4px ; text-align: center ; text-decoration: underline&quot;&gt;&lt;b&gt;Consulta&amp;nbsp;&lt;/b&gt;&lt;/p&gt;&lt;hr&gt;&lt;p style=&quot;margin: 0px ; margin-left: 8px&quot;&gt;ID_Consulta (PK)&lt;br&gt;Exama&lt;br&gt;Hospital&lt;br&gt;Valor&lt;/p&gt;" style="verticalAlign=top;align=left;overflow=fill;fontSize=12;fontFamily=Helvetica;html=1;rounded=0;shadow=0;comic=0;labelBackgroundColor=none;strokeWidth=1" vertex="1" parent="1">
          <mxGeometry x="610" y="310" width="140" height="90" as="geometry" />
        </mxCell>
        <mxCell id="24794b860abc3c2d-25" value="&lt;p style=&quot;margin: 0px ; margin-top: 4px ; text-align: center ; text-decoration: underline&quot;&gt;&lt;b&gt;Cirurgia&lt;/b&gt;&lt;/p&gt;&lt;hr&gt;&lt;p style=&quot;margin: 0px ; margin-left: 8px&quot;&gt;ID_Cirurgia (PK)&lt;br&gt;Consulta&lt;br&gt;Descrição&lt;/p&gt;" style="verticalAlign=top;align=left;overflow=fill;fontSize=12;fontFamily=Helvetica;html=1;rounded=0;shadow=0;comic=0;labelBackgroundColor=none;strokeWidth=1" vertex="1" parent="1">
          <mxGeometry x="760" y="450" width="140" height="80" as="geometry" />
        </mxCell>
        <mxCell id="24794b860abc3c2d-26" value="&lt;p style=&quot;margin: 0px ; margin-top: 4px ; text-align: center ; text-decoration: underline&quot;&gt;&lt;b&gt;Estoque&lt;/b&gt;&lt;/p&gt;&lt;hr&gt;&lt;p style=&quot;margin: 0px ; margin-left: 8px&quot;&gt;ID_estoque(Pk)&lt;br&gt;Poduto (fK)&lt;br&gt;Quantidade&lt;br&gt;Dtdemodificação&lt;/p&gt;" style="verticalAlign=top;align=left;overflow=fill;fontSize=12;fontFamily=Helvetica;html=1;rounded=0;shadow=0;comic=0;labelBackgroundColor=none;strokeWidth=1" vertex="1" parent="1">
          <mxGeometry x="160" y="680" width="140" height="100" as="geometry" />
        </mxCell>
        <mxCell id="24794b860abc3c2d-27" value="&lt;p style=&quot;margin: 0px ; margin-top: 4px ; text-align: center ; text-decoration: underline&quot;&gt;&lt;b&gt;Vacina&lt;/b&gt;&lt;/p&gt;&lt;hr&gt;&lt;p style=&quot;margin: 0px ; margin-left: 8px&quot;&gt;ID_Vacina(Pk)&lt;br&gt;Tipo Vacina&lt;br&gt;Dtvacina&lt;/p&gt;" style="verticalAlign=top;align=left;overflow=fill;fontSize=12;fontFamily=Helvetica;html=1;rounded=0;shadow=0;comic=0;labelBackgroundColor=none;strokeWidth=1" vertex="1" parent="1">
          <mxGeometry x="760" y="180" width="140" height="90" as="geometry" />
        </mxCell>
        <mxCell id="GVxuWiYh2Y_qJy_Hf5tY-13" value="" style="edgeStyle=orthogonalEdgeStyle;rounded=0;orthogonalLoop=1;jettySize=auto;html=1;" edge="1" parent="1" source="24794b860abc3c2d-28" target="GVxuWiYh2Y_qJy_Hf5tY-12">
          <mxGeometry relative="1" as="geometry" />
        </mxCell>
        <mxCell id="24794b860abc3c2d-28" value="&lt;p style=&quot;margin: 0px ; margin-top: 4px ; text-align: center ; text-decoration: underline&quot;&gt;&lt;b&gt;Exame&lt;/b&gt;&lt;/p&gt;&lt;hr&gt;&lt;p style=&quot;margin: 0px ; margin-left: 8px&quot;&gt;ID_Exame (PK)&lt;br&gt;Tipo exame&lt;br&gt;Gato (FK)&lt;/p&gt;&lt;p style=&quot;margin: 0px ; margin-left: 8px&quot;&gt;Dtexame&lt;br&gt;Laudo exame&lt;/p&gt;" style="verticalAlign=top;align=left;overflow=fill;fontSize=12;fontFamily=Helvetica;html=1;rounded=0;shadow=0;comic=0;labelBackgroundColor=none;strokeWidth=1" vertex="1" parent="1">
          <mxGeometry x="880" y="320" width="140" height="110" as="geometry" />
        </mxCell>
        <mxCell id="GVxuWiYh2Y_qJy_Hf5tY-28" style="edgeStyle=orthogonalEdgeStyle;rounded=0;orthogonalLoop=1;jettySize=auto;html=1;exitX=0;exitY=0.5;exitDx=0;exitDy=0;" edge="1" parent="1" source="24794b860abc3c2d-29" target="24794b860abc3c2d-26">
          <mxGeometry relative="1" as="geometry" />
        </mxCell>
        <mxCell id="GVxuWiYh2Y_qJy_Hf5tY-36" value="" style="edgeStyle=orthogonalEdgeStyle;rounded=0;orthogonalLoop=1;jettySize=auto;html=1;" edge="1" parent="1" source="24794b860abc3c2d-29" target="GVxuWiYh2Y_qJy_Hf5tY-35">
          <mxGeometry relative="1" as="geometry" />
        </mxCell>
        <mxCell id="24794b860abc3c2d-29" value="&lt;p style=&quot;margin: 0px ; margin-top: 4px ; text-align: center ; text-decoration: underline&quot;&gt;&lt;b&gt;Produto&lt;/b&gt;&lt;/p&gt;&lt;hr&gt;&lt;p style=&quot;margin: 0px ; margin-left: 8px&quot;&gt;ID_Produto&lt;br&gt;Tipo de produto&lt;br&gt;Doação&lt;br&gt;Dtentrada&lt;br&gt;Validade&lt;br&gt;Peso&lt;/p&gt;" style="verticalAlign=top;align=left;overflow=fill;fontSize=12;fontFamily=Helvetica;html=1;rounded=0;shadow=0;comic=0;labelBackgroundColor=none;strokeWidth=1" vertex="1" parent="1">
          <mxGeometry x="380" y="669" width="140" height="122" as="geometry" />
        </mxCell>
        <mxCell id="VtXMs43hTw4Pi5DhxQxj-1" value="&lt;span style=&quot;color: rgba(0, 0, 0, 0); font-family: monospace; font-size: 0px; text-align: start;&quot;&gt;%3CmxGraphModel%3E%3Croot%3E%3CmxCell%20id%3D%220%22%2F%3E%3CmxCell%20id%3D%221%22%20parent%3D%220%22%2F%3E%3CmxCell%20id%3D%222%22%20value%3D%22%26lt%3Bp%20style%3D%26quot%3Bmargin%3A%200px%20%3B%20margin-top%3A%204px%20%3B%20text-align%3A%20center%20%3B%20text-decoration%3A%20underline%26quot%3B%26gt%3B%26lt%3Bb%26gt%3BVoluntario%26lt%3B%2Fb%26gt%3B%26lt%3B%2Fp%26gt%3B%26lt%3Bp%20style%3D%26quot%3Bmargin%3A%200px%20%3B%20margin-left%3A%208px%26quot%3B%26gt%3BID_Voluntario%20(Pk)%26lt%3Bbr%26gt%3BNome%26lt%3Bbr%26gt%3BEndere%C3%A7o%26lt%3Bbr%26gt%3BDtNascimento%26lt%3Bbr%26gt%3B%26lt%3B%2Fp%26gt%3B%22%20style%3D%22verticalAlign%3Dtop%3Balign%3Dleft%3Boverflow%3Dfill%3BfontSize%3D12%3BfontFamily%3DHelvetica%3Bhtml%3D1%3Brounded%3D0%3Bshadow%3D0%3Bcomic%3D0%3BlabelBackgroundColor%3Dnone%3BstrokeWidth%3D1%22%20vertex%3D%221%22%20parent%3D%221%22%3E%3CmxGeometry%20x%3D%22410%22%20y%3D%22465%22%20width%3D%22140%22%20height%3D%2285%22%20as%3D%22geometry%22%2F%3E%3C%2FmxCell%3E%3C%2Froot%3E%3C%2FmxGraphModel%3E&lt;/span&gt;&lt;span style=&quot;color: rgba(0, 0, 0, 0); font-family: monospace; font-size: 0px; text-align: start;&quot;&gt;%3CmxGraphModel%3E%3Croot%3E%3CmxCell%20id%3D%220%22%2F%3E%3CmxCell%20id%3D%221%22%20parent%3D%220%22%2F%3E%3CmxCell%20id%3D%222%22%20value%3D%22%26lt%3Bp%20style%3D%26quot%3Bmargin%3A%200px%20%3B%20margin-top%3A%204px%20%3B%20text-align%3A%20center%20%3B%20text-decoration%3A%20underline%26quot%3B%26gt%3B%26lt%3Bb%26gt%3BVoluntario%26lt%3B%2Fb%26gt%3B%26lt%3B%2Fp%26gt%3B%26lt%3Bp%20style%3D%26quot%3Bmargin%3A%200px%20%3B%20margin-left%3A%208px%26quot%3B%26gt%3BID_Voluntario%20(Pk)%26lt%3Bbr%26gt%3BNome%26lt%3Bbr%26gt%3BEndere%C3%A7o%26lt%3Bbr%26gt%3BDtNascimento%26lt%3Bbr%26gt%3B%26lt%3B%2Fp%26gt%3B%22%20style%3D%22verticalAlign%3Dtop%3Balign%3Dleft%3Boverflow%3Dfill%3BfontSize%3D12%3BfontFamily%3DHelvetica%3Bhtml%3D1%3Brounded%3D0%3Bshadow%3D0%3Bcomic%3D0%3BlabelBackgroundColor%3Dnone%3BstrokeWidth%3D1%22%20vertex%3D%221%22%20parent%3D%221%22%3E%3CmxGeometry%20x%3D%22410%22%20y%3D%22465%22%20width%3D%22140%22%20height%3D%2285%22%20as%3D%22geometry%22%2F%3E%3C%2FmxCell%3E%3C%2Froot%3E%3C%2FmxGraphModel%3E&lt;/span&gt;" style="text;html=1;align=center;verticalAlign=middle;resizable=0;points=[];autosize=1;strokeColor=none;fillColor=none;" vertex="1" parent="1">
          <mxGeometry x="260" y="550" width="20" height="30" as="geometry" />
        </mxCell>
        <mxCell id="VtXMs43hTw4Pi5DhxQxj-4" style="edgeStyle=orthogonalEdgeStyle;rounded=0;orthogonalLoop=1;jettySize=auto;html=1;exitX=0.5;exitY=1;exitDx=0;exitDy=0;" edge="1" parent="1" source="24794b860abc3c2d-23">
          <mxGeometry relative="1" as="geometry">
            <mxPoint x="510" y="300" as="targetPoint" />
            <Array as="points">
              <mxPoint x="350" y="160" />
              <mxPoint x="440" y="160" />
              <mxPoint x="440" y="300" />
            </Array>
          </mxGeometry>
        </mxCell>
        <mxCell id="VtXMs43hTw4Pi5DhxQxj-6" style="edgeStyle=orthogonalEdgeStyle;rounded=0;orthogonalLoop=1;jettySize=auto;html=1;entryX=0.014;entryY=0.184;entryDx=0;entryDy=0;entryPerimeter=0;" edge="1" parent="1" source="24794b860abc3c2d-20" target="24794b860abc3c2d-24">
          <mxGeometry relative="1" as="geometry" />
        </mxCell>
        <mxCell id="VtXMs43hTw4Pi5DhxQxj-7" style="edgeStyle=orthogonalEdgeStyle;rounded=0;orthogonalLoop=1;jettySize=auto;html=1;exitX=0.5;exitY=1;exitDx=0;exitDy=0;" edge="1" parent="1" source="24794b860abc3c2d-25" target="24794b860abc3c2d-25">
          <mxGeometry relative="1" as="geometry" />
        </mxCell>
        <mxCell id="VtXMs43hTw4Pi5DhxQxj-9" style="edgeStyle=orthogonalEdgeStyle;rounded=0;orthogonalLoop=1;jettySize=auto;html=1;exitX=0;exitY=1;exitDx=0;exitDy=0;entryX=0.139;entryY=0.003;entryDx=0;entryDy=0;entryPerimeter=0;" edge="1" parent="1" source="24794b860abc3c2d-24" target="24794b860abc3c2d-22">
          <mxGeometry relative="1" as="geometry" />
        </mxCell>
        <mxCell id="VtXMs43hTw4Pi5DhxQxj-10" style="edgeStyle=orthogonalEdgeStyle;rounded=0;orthogonalLoop=1;jettySize=auto;html=1;exitX=0.5;exitY=1;exitDx=0;exitDy=0;entryX=0.296;entryY=0.016;entryDx=0;entryDy=0;entryPerimeter=0;" edge="1" parent="1" source="24794b860abc3c2d-24" target="24794b860abc3c2d-25">
          <mxGeometry relative="1" as="geometry" />
        </mxCell>
        <mxCell id="VtXMs43hTw4Pi5DhxQxj-13" value="-" style="edgeStyle=orthogonalEdgeStyle;rounded=0;orthogonalLoop=1;jettySize=auto;html=1;" edge="1" parent="1" source="24794b860abc3c2d-24">
          <mxGeometry relative="1" as="geometry">
            <mxPoint x="880" y="355" as="targetPoint" />
          </mxGeometry>
        </mxCell>
        <mxCell id="VtXMs43hTw4Pi5DhxQxj-14" style="edgeStyle=orthogonalEdgeStyle;rounded=0;orthogonalLoop=1;jettySize=auto;html=1;entryX=0.079;entryY=0;entryDx=0;entryDy=0;entryPerimeter=0;" edge="1" parent="1" source="24794b860abc3c2d-19" target="24794b860abc3c2d-20">
          <mxGeometry relative="1" as="geometry" />
        </mxCell>
        <mxCell id="VtXMs43hTw4Pi5DhxQxj-19" style="edgeStyle=orthogonalEdgeStyle;rounded=0;orthogonalLoop=1;jettySize=auto;html=1;exitX=1;exitY=0.5;exitDx=0;exitDy=0;entryX=0;entryY=0.5;entryDx=0;entryDy=0;" edge="1" parent="1" source="VtXMs43hTw4Pi5DhxQxj-15" target="VtXMs43hTw4Pi5DhxQxj-17">
          <mxGeometry relative="1" as="geometry" />
        </mxCell>
        <mxCell id="VtXMs43hTw4Pi5DhxQxj-15" value="&lt;p style=&quot;margin: 0px ; margin-top: 4px ; text-align: center ; text-decoration: underline&quot;&gt;&lt;b&gt;Campanha&amp;nbsp;&lt;/b&gt;&lt;/p&gt;&lt;hr&gt;&lt;p style=&quot;margin: 0px ; margin-left: 8px&quot;&gt;ID_Campanha (PK)&lt;br&gt;Dtinicio&lt;br&gt;Dtfinal&lt;br&gt;objetivo&lt;/p&gt;" style="verticalAlign=top;align=left;overflow=fill;fontSize=12;fontFamily=Helvetica;html=1;rounded=0;shadow=0;comic=0;labelBackgroundColor=none;strokeWidth=1" vertex="1" parent="1">
          <mxGeometry x="470" y="50" width="140" height="90" as="geometry" />
        </mxCell>
        <mxCell id="VtXMs43hTw4Pi5DhxQxj-17" value="&lt;p style=&quot;margin: 0px ; margin-top: 4px ; text-align: center ; text-decoration: underline&quot;&gt;&lt;b&gt;Doação&lt;/b&gt;&lt;/p&gt;&lt;hr&gt;&lt;p style=&quot;margin: 0px ; margin-left: 8px&quot;&gt;ID_Doação(Pk)&lt;br&gt;Campanha(Fk)&lt;br&gt;Tipo de doador&amp;nbsp;&lt;/p&gt;&lt;p style=&quot;margin: 0px ; margin-left: 8px&quot;&gt;Doador&amp;nbsp;&lt;/p&gt;" style="verticalAlign=top;align=left;overflow=fill;fontSize=12;fontFamily=Helvetica;html=1;rounded=0;shadow=0;comic=0;labelBackgroundColor=none;strokeWidth=1" vertex="1" parent="1">
          <mxGeometry x="740" y="50" width="140" height="90" as="geometry" />
        </mxCell>
        <mxCell id="VtXMs43hTw4Pi5DhxQxj-18" style="edgeStyle=orthogonalEdgeStyle;rounded=0;orthogonalLoop=1;jettySize=auto;html=1;exitX=0.75;exitY=0;exitDx=0;exitDy=0;entryX=0.329;entryY=1.022;entryDx=0;entryDy=0;entryPerimeter=0;" edge="1" parent="1" source="24794b860abc3c2d-20" target="VtXMs43hTw4Pi5DhxQxj-15">
          <mxGeometry relative="1" as="geometry" />
        </mxCell>
        <mxCell id="VtXMs43hTw4Pi5DhxQxj-20" value="&lt;p style=&quot;margin: 0px ; margin-top: 4px ; text-align: center ; text-decoration: underline&quot;&gt;&lt;b&gt;Doadores&lt;/b&gt;&lt;/p&gt;&lt;hr&gt;&lt;p style=&quot;margin: 0px ; margin-left: 8px&quot;&gt;ID_Doadores (PK)&lt;br&gt;Tipo de doação&lt;br&gt;Nome (FK)&lt;br&gt;CPF&lt;br&gt;CNPJ&lt;br&gt;Dtentrada&lt;/p&gt;" style="verticalAlign=top;align=left;overflow=fill;fontSize=12;fontFamily=Helvetica;html=1;rounded=0;shadow=0;comic=0;labelBackgroundColor=none;strokeWidth=1" vertex="1" parent="1">
          <mxGeometry x="970" y="50" width="140" height="120" as="geometry" />
        </mxCell>
        <mxCell id="VtXMs43hTw4Pi5DhxQxj-21" style="edgeStyle=orthogonalEdgeStyle;rounded=0;orthogonalLoop=1;jettySize=auto;html=1;exitX=0;exitY=0.5;exitDx=0;exitDy=0;entryX=0.993;entryY=0.656;entryDx=0;entryDy=0;entryPerimeter=0;" edge="1" parent="1" source="VtXMs43hTw4Pi5DhxQxj-20" target="VtXMs43hTw4Pi5DhxQxj-17">
          <mxGeometry relative="1" as="geometry" />
        </mxCell>
        <mxCell id="GVxuWiYh2Y_qJy_Hf5tY-2" value="" style="ellipse;whiteSpace=wrap;html=1;align=center;aspect=fixed;fillColor=none;strokeColor=none;resizable=0;perimeter=centerPerimeter;rotatable=0;allowArrows=0;points=[];outlineConnect=1;" vertex="1" parent="1">
          <mxGeometry x="20" y="-190" width="10" height="10" as="geometry" />
        </mxCell>
        <mxCell id="GVxuWiYh2Y_qJy_Hf5tY-3" value="&lt;p style=&quot;margin: 0px ; margin-top: 4px ; text-align: center ; text-decoration: underline&quot;&gt;&lt;b&gt;End_Colaborador&lt;/b&gt;&lt;/p&gt;&lt;hr&gt;&lt;p style=&quot;margin: 0px ; margin-left: 8px&quot;&gt;ID_End_Colaborador (PK)&lt;br&gt;ID_Colaborador&lt;br&gt;Cep&lt;br&gt;Rua&lt;br&gt;Complemento&lt;br&gt;Bairro&lt;br&gt;Cidade&lt;br&gt;Estado&lt;br&gt;&lt;br&gt;&lt;/p&gt;" style="verticalAlign=top;align=left;overflow=fill;fontSize=12;fontFamily=Helvetica;html=1;rounded=0;shadow=0;comic=0;labelBackgroundColor=none;strokeWidth=1" vertex="1" parent="1">
          <mxGeometry x="120" y="-320" width="160" height="150" as="geometry" />
        </mxCell>
        <mxCell id="GVxuWiYh2Y_qJy_Hf5tY-4" value="&lt;p style=&quot;margin: 0px ; margin-top: 4px ; text-align: center ; text-decoration: underline&quot;&gt;&lt;b&gt;Tel_Colaborador&lt;/b&gt;&lt;/p&gt;&lt;hr&gt;&lt;p style=&quot;margin: 0px ; margin-left: 8px&quot;&gt;ID_Tel_Colaborador (PK)&lt;br&gt;ID_Colaborador&lt;br&gt;DDD&lt;br&gt;Numero&lt;br&gt;&lt;br&gt;&lt;/p&gt;" style="verticalAlign=top;align=left;overflow=fill;fontSize=12;fontFamily=Helvetica;html=1;rounded=0;shadow=0;comic=0;labelBackgroundColor=none;strokeWidth=1" vertex="1" parent="1">
          <mxGeometry x="360" y="-320" width="160" height="100" as="geometry" />
        </mxCell>
        <mxCell id="GVxuWiYh2Y_qJy_Hf5tY-23" value="" style="edgeStyle=orthogonalEdgeStyle;rounded=0;orthogonalLoop=1;jettySize=auto;html=1;" edge="1" parent="1" source="GVxuWiYh2Y_qJy_Hf5tY-12" target="GVxuWiYh2Y_qJy_Hf5tY-22">
          <mxGeometry relative="1" as="geometry" />
        </mxCell>
        <mxCell id="GVxuWiYh2Y_qJy_Hf5tY-12" value="&lt;p style=&quot;margin: 0px ; margin-top: 4px ; text-align: center ; text-decoration: underline&quot;&gt;&lt;b&gt;Procedimento&lt;/b&gt;&lt;/p&gt;&lt;hr&gt;&lt;p style=&quot;margin: 0px ; margin-left: 8px&quot;&gt;ID_Procedimento (PK)&lt;br&gt;ID_Tipo_Procedimento (FK)&lt;br&gt;Gato (FK)&lt;br&gt;ID_Consulta&lt;br&gt;DT_Procedimento&lt;br&gt;Laudo_Veterinario&lt;br&gt;Observações&lt;br&gt;Valor&lt;br&gt;&lt;br&gt;&lt;/p&gt;&lt;p style=&quot;margin: 0px ; margin-left: 8px&quot;&gt;&lt;br&gt;&lt;/p&gt;" style="verticalAlign=top;align=left;overflow=fill;fontSize=12;fontFamily=Helvetica;html=1;rounded=0;shadow=0;comic=0;labelBackgroundColor=none;strokeWidth=1" vertex="1" parent="1">
          <mxGeometry x="1170" y="300" width="170" height="150" as="geometry" />
        </mxCell>
        <mxCell id="GVxuWiYh2Y_qJy_Hf5tY-20" value="&lt;p style=&quot;margin: 0px ; margin-top: 4px ; text-align: center ; text-decoration: underline&quot;&gt;&lt;b&gt;End_Hospital&amp;nbsp;&lt;/b&gt;&lt;/p&gt;&lt;hr&gt;&lt;p style=&quot;margin: 0px ; margin-left: 8px&quot;&gt;ID_End_Adotante (PK)&lt;br&gt;ID_Adotante&lt;br&gt;Cep&lt;br&gt;Rua&lt;br&gt;Número&lt;br&gt;Compllemento&lt;br&gt;Bairro&lt;br&gt;Cidade&lt;br&gt;Estado&lt;br&gt;&lt;br&gt;&lt;br&gt;&lt;br&gt;&lt;/p&gt;" style="verticalAlign=top;align=left;overflow=fill;fontSize=12;fontFamily=Helvetica;html=1;rounded=0;shadow=0;comic=0;labelBackgroundColor=none;strokeWidth=1" vertex="1" parent="1">
          <mxGeometry x="830" y="568" width="140" height="171" as="geometry" />
        </mxCell>
        <mxCell id="GVxuWiYh2Y_qJy_Hf5tY-22" value="&lt;p style=&quot;margin: 0px ; margin-top: 4px ; text-align: center ; text-decoration: underline&quot;&gt;&lt;b&gt;Tipo_Procedimento&lt;/b&gt;&lt;/p&gt;&lt;hr&gt;&lt;p style=&quot;margin: 0px ; margin-left: 8px&quot;&gt;ID_ Tipo_Procedimento (PK)&lt;br&gt;Descrição&lt;/p&gt;&lt;p style=&quot;margin: 0px ; margin-left: 8px&quot;&gt;&lt;br&gt;&lt;/p&gt;" style="verticalAlign=top;align=left;overflow=fill;fontSize=12;fontFamily=Helvetica;html=1;rounded=0;shadow=0;comic=0;labelBackgroundColor=none;strokeWidth=1" vertex="1" parent="1">
          <mxGeometry x="1170" y="170" width="170" height="70" as="geometry" />
        </mxCell>
        <mxCell id="GVxuWiYh2Y_qJy_Hf5tY-32" style="edgeStyle=orthogonalEdgeStyle;rounded=0;orthogonalLoop=1;jettySize=auto;html=1;exitX=0.75;exitY=1;exitDx=0;exitDy=0;entryX=0;entryY=0.187;entryDx=0;entryDy=0;entryPerimeter=0;" edge="1" parent="1" source="24794b860abc3c2d-22" target="GVxuWiYh2Y_qJy_Hf5tY-20">
          <mxGeometry relative="1" as="geometry" />
        </mxCell>
        <mxCell id="GVxuWiYh2Y_qJy_Hf5tY-33" value="&lt;p style=&quot;margin: 0px ; margin-top: 4px ; text-align: center ; text-decoration: underline&quot;&gt;&lt;b&gt;Tel_Hospital&amp;nbsp;&lt;/b&gt;&lt;/p&gt;&lt;hr&gt;&lt;p style=&quot;margin: 0px ; margin-left: 8px&quot;&gt;ID_Tel_Hospital (PK)&lt;br&gt;ID_Adotante&lt;br&gt;DDD&lt;br&gt;Número&lt;br&gt;&lt;br&gt;&lt;br&gt;&lt;/p&gt;" style="verticalAlign=top;align=left;overflow=fill;fontSize=12;fontFamily=Helvetica;html=1;rounded=0;shadow=0;comic=0;labelBackgroundColor=none;strokeWidth=1" vertex="1" parent="1">
          <mxGeometry x="610" y="639" width="140" height="100" as="geometry" />
        </mxCell>
        <mxCell id="GVxuWiYh2Y_qJy_Hf5tY-35" value="&lt;p style=&quot;margin: 0px ; margin-top: 4px ; text-align: center ; text-decoration: underline&quot;&gt;&lt;b&gt;Tipo_Produto&lt;/b&gt;&lt;/p&gt;&lt;hr&gt;&lt;p style=&quot;margin: 0px ; margin-left: 8px&quot;&gt;ID_Tipo_Produto&lt;br&gt;Descrição&lt;/p&gt;" style="verticalAlign=top;align=left;overflow=fill;fontSize=12;fontFamily=Helvetica;html=1;rounded=0;shadow=0;comic=0;labelBackgroundColor=none;strokeWidth=1" vertex="1" parent="1">
          <mxGeometry x="380" y="871" width="140" height="69" as="geometry" />
        </mxCell>
        <mxCell id="GVxuWiYh2Y_qJy_Hf5tY-41" value="&lt;p style=&quot;margin: 0px ; margin-top: 4px ; text-align: center ; text-decoration: underline&quot;&gt;&lt;b&gt;End_Adotante&lt;/b&gt;&lt;/p&gt;&lt;hr&gt;&lt;p style=&quot;margin: 0px ; margin-left: 8px&quot;&gt;ID_End_Adotante (PK)&lt;br&gt;ID_Adotante (FK)&lt;br&gt;Cep&lt;br&gt;Rua&lt;br&gt;Complemento&lt;br&gt;Bairro&lt;br&gt;Cidade&lt;br&gt;Estado&lt;br&gt;&lt;br&gt;&lt;/p&gt;" style="verticalAlign=top;align=left;overflow=fill;fontSize=12;fontFamily=Helvetica;html=1;rounded=0;shadow=0;comic=0;labelBackgroundColor=none;strokeWidth=1" vertex="1" parent="1">
          <mxGeometry x="-360" y="7.5" width="160" height="150" as="geometry" />
        </mxCell>
        <mxCell id="GVxuWiYh2Y_qJy_Hf5tY-42" style="edgeStyle=orthogonalEdgeStyle;rounded=0;orthogonalLoop=1;jettySize=auto;html=1;exitX=0;exitY=0.5;exitDx=0;exitDy=0;entryX=1.027;entryY=0.431;entryDx=0;entryDy=0;entryPerimeter=0;" edge="1" parent="1" source="24794b860abc3c2d-17" target="24794b860abc3c2d-1">
          <mxGeometry relative="1" as="geometry" />
        </mxCell>
        <mxCell id="GVxuWiYh2Y_qJy_Hf5tY-44" value="&lt;p style=&quot;margin: 0px ; margin-top: 4px ; text-align: center ; text-decoration: underline&quot;&gt;&lt;b&gt;Tel_Adotante&lt;/b&gt;&lt;/p&gt;&lt;hr&gt;&lt;p style=&quot;margin: 0px ; margin-left: 8px&quot;&gt;ID_Tel_Adotante (PK)&lt;br&gt;ID_Adotante (FK)&lt;br&gt;DDD&lt;br&gt;Número&lt;/p&gt;" style="verticalAlign=top;align=left;overflow=fill;fontSize=12;fontFamily=Helvetica;html=1;rounded=0;shadow=0;comic=0;labelBackgroundColor=none;strokeWidth=1" vertex="1" parent="1">
          <mxGeometry x="-90" y="7.5" width="160" height="95" as="geometry" />
        </mxCell>
        <mxCell id="GVxuWiYh2Y_qJy_Hf5tY-49" value="" style="ellipse;whiteSpace=wrap;html=1;align=center;aspect=fixed;fillColor=none;strokeColor=none;resizable=0;perimeter=centerPerimeter;rotatable=0;allowArrows=0;points=[];outlineConnect=1;" vertex="1" parent="1">
          <mxGeometry x="590" y="-10" width="10" height="10" as="geometry" />
        </mxCell>
      </root>
    </mxGraphModel>
  </diagram>
</mxfile>
